HIERARCHY
ROOT Hips
{
	OFFSET 0.00 0.00 0.00
	CHANNELS 6 Xposition Yposition Zposition Xrotation Yrotation Zrotation
	JOINT RightUpLeg
	{
		OFFSET -4.47808 0.00000 0.00000
		CHANNELS 3 Xrotation Yrotation Zrotation
		JOINT RightLeg
		{
			OFFSET 0.00000 -16.40577 0.00000
			CHANNELS 3 Xrotation Yrotation Zrotation
			JOINT RightFoot
			{
				OFFSET 0.00000 -14.64414 0.00000
				CHANNELS 3 Xrotation Yrotation Zrotation
				JOINT RightToeBase
				{
					OFFSET 0.00000 -1.50274 5.60831
					CHANNELS 3 Xrotation Yrotation Zrotation
					End Site
					{
						OFFSET 0.00000 0.00000 2.95275
					}
				}
			}
		}
	}
	JOINT LeftUpLeg
	{
		OFFSET 4.47808 0.00000 0.00000
		CHANNELS 3 Xrotation Yrotation Zrotation
		JOINT LeftLeg
		{
			OFFSET 0.00000 -16.40577 0.00000
			CHANNELS 3 Xrotation Yrotation Zrotation
			JOINT LeftFoot
			{
				OFFSET 0.00000 -14.64414 0.00000
				CHANNELS 3 Xrotation Yrotation Zrotation
				JOINT LeftToeBase
				{
					OFFSET 0.00000 -1.50274 5.60831
					CHANNELS 3 Xrotation Yrotation Zrotation
					End Site
					{
						OFFSET 0.00000 0.00000 2.95275
					}
				}
			}
		}
	}
	JOINT Spine
	{
		OFFSET 0.00000 6.06821 0.00000
		CHANNELS 3 Xrotation Yrotation Zrotation
		JOINT RightShoulder
		{
			OFFSET 0.00000 10.01392 0.00000
			CHANNELS 3 Xrotation Yrotation Zrotation
			JOINT RightArm
			{
				OFFSET -7.19022 0.00000 0.00000
				CHANNELS 3 Xrotation Yrotation Zrotation
				JOINT RightForeArm
				{
					OFFSET -10.17747 0.00000 0.00000
					CHANNELS 3 Yrotation Zrotation Xrotation
					JOINT RightHand
					{
						OFFSET -8.39211 0.00000 0.00000
						CHANNELS 3 Xrotation Yrotation Zrotation
						End Site
						{
							OFFSET -3.93700 0.00000 0.00000
						}
						JOINT RightHandThumb1
						{
							OFFSET 0.00000 0.00000 0.00000
							CHANNELS 3 Xrotation Zrotation Yrotation
							End Site
							{
								OFFSET 0.00000 0.00000 3.93700
							}
						}
					}
				}
			}
		}
		JOINT LeftShoulder
		{
			OFFSET 0.00000 10.01392 0.00000
			CHANNELS 3 Xrotation Yrotation Zrotation
			JOINT LeftArm
			{
				OFFSET 7.19022 0.00000 0.00000
				CHANNELS 3 Xrotation Yrotation Zrotation
				JOINT LeftForeArm
				{
					OFFSET 10.17747 0.00000 0.00000
					CHANNELS 3 Yrotation Zrotation Xrotation
					JOINT LeftHand
					{
						OFFSET 8.39211 0.00000 0.00000
						CHANNELS 3 Xrotation Yrotation Zrotation
						End Site
						{
							OFFSET 3.93700 0.00000 0.00000
						}
						JOINT LeftHandThumb1
						{
							OFFSET 0.00000 0.00000 0.00000
							CHANNELS 3 Xrotation Zrotation Yrotation
							End Site
							{
								OFFSET 0.00000 0.00000 3.93700
							}
						}
					}
				}
			}
		}
		JOINT Head
		{
			OFFSET 0.00000 15.77748 0.00000
			CHANNELS 3 Xrotation Yrotation Zrotation
			End Site
			{
				OFFSET 0.00000 4.52755 0.00000
			}
		}
	}
}
MOTION
Frames: 21
Frame Time: 0.008333
 -3.7643 33.1536 -1.5466 8.4422 -3.3885 2.7917 -2.9804 0.4741 1.6500 0.9393 0.0000 0.0000 -10.9123 -2.0611 -5.1906 2.7293 0.0000 -0.0000 -2.0154 0.1959 -2.9271 2.4053 -0.0000 0.0000 -11.7224 9.4366 -7.9195 9.7205 -0.0000 -0.0000 -9.7819 -1.7075 -3.4716 4.9586 -22.8439 -24.1252 -34.6001 -8.7882 41.0636 16.8173 0.0000 7.3320 2.0060 12.6633 -9.0776 32.8623 0.0000 -24.3270 -8.2329 22.4600 31.5340 -37.7132 9.0883 -33.6755 -12.1722 -0.0000 7.2611 0.6927 -1.4875 24.9733 33.1476 -0.0000 26.2537 0.6732 3.2700 2.4659
 -3.7653 33.1528 -1.5410 8.4097 -3.4056 2.7871 -2.9484 0.4823 1.6559 0.9578 -0.0000 0.0000 -10.9345 -2.0601 -5.1843 2.7322 0.0000 -0.0000 -1.9820 0.1944 -2.9234 2.4330 0.0000 -0.0000 -11.7507 9.4585 -7.9485 9.7725 0.0000 -0.0000 -9.8067 -1.7022 -3.4577 5.0152 -22.7995 -24.1155 -34.5383 -8.7467 41.0762 16.8547 0.0000 7.3328 1.9886 12.7166 -8.9637 32.8623 0.0000 -24.3270 -8.1410 22.4839 31.5157 -37.6793 9.0378 -33.7372 -12.2094 -0.0000 7.3052 0.7202 -1.5398 25.0693 33.1476 -0.0000 26.2537 1.0598 3.2630 2.3891
 -3.7672 33.1526 -1.5376 8.3743 -3.4073 2.7888 -2.9158 0.4526 1.6552 0.9758 0.0000 0.0000 -10.9462 -2.0311 -5.1850 2.7472 -0.0000 0.0000 -1.9575 0.1766 -2.9251 2.4640 0.0000 0.0000 -11.7690 9.4738 -7.9144 9.7379 0.0000 -0.0000 -9.8228 -1.7145 -3.4559 5.1147 -22.7772 -24.0911 -34.5577 -8.7368 41.1140 16.8931 0.0000 7.4043 1.9993 12.7174 -9.0105 32.8623 0.0000 -24.3270 -8.0537 22.4950 31.4912 -37.6574 8.9912 -33.7789 -12.2173 -0.0000 7.3688 0.7544 -1.6044 25.1875 33.1476 -0.0000 26.2537 1.4269 3.2423 2.3126
 -3.7682 33.1523 -1.5330 8.3432 -3.4160 2.7919 -2.8871 0.4456 1.6527 0.9992 0.0000 0.0000 -10.9604 -2.0271 -5.1922 2.7220 -0.0000 0.0000 -1.9327 0.1336 -2.9348 2.4917 -0.0000 -0.0000 -11.7941 9.5498 -7.9013 9.7792 -0.0000 -0.0000 -9.8496 -1.7160 -3.4527 5.1749 -22.7377 -24.0822 -34.5274 -8.7120 41.1457 16.9059 0.0000 7.4350 2.0136 12.6670 -9.1087 32.8623 0.0000 -24.3270 -7.9607 22.5133 31.4713 -37.6645 8.9603 -33.8299 -12.2277 -0.0000 7.3949 0.7906 -1.6751 25.2703 33.1476 -0.0000 26.2537 1.8020 3.1956 2.2400
 -3.7684 33.1523 -1.5294 8.3138 -3.4176 2.7930 -2.8625 0.4358 1.6492 1.0233 0.0000 0.0000 -10.9860 -2.0288 -5.1479 2.7643 -0.0000 -0.0000 -1.9143 0.1166 -2.9401 2.5250 0.0000 0.0000 -11.8021 9.5714 -7.8813 9.7104 -0.0000 -0.0000 -9.8724 -1.7158 -3.4417 5.2125 -22.6945 -24.0907 -34.5183 -8.7528 41.1724 16.9106 0.0000 7.5244 2.0359 12.7683 -9.1374 32.8623 0.0000 -24.3270 -7.8880 22.5103 31.4526 -37.6709 8.9408 -33.8805 -12.2252 -0.0000 7.4860 0.8246 -1.7429 25.3249 33.1476 -0.0000 26.2537 2.1610 3.1662 2.1611
 -3.7693 33.1522 -1.5262 8.2813 -3.4182 2.7863 -2.8296 0.4105 1.6555 1.0329 -0.0000 0.0000 -10.9806 -1.9969 -5.1762 2.7165 0.0000 -0.0000 -1.8892 0.1062 -2.9354 2.5469 -0.0000 0.0000 -11.8104 9.5898 -7.8819 9.7476 -0.0000 -0.0000 -9.8871 -1.7283 -3.4235 5.2708 -22.6596 -24.0830 -34.5592 -8.7933 41.1950 16.9245 0.0000 7.5530 2.0204 12.7422 -9.0868 32.8623 0.0000 -24.3270 -7.8448 22.5021 31.4421 -37.6472 8.9172 -33.9272 -12.2315 -0.0000 7.5323 0.8443 -1.7729 25.4695 33.1476 -0.0000 26.2537 2.4948 3.1373 2.0784
 -3.7731 33.1515 -1.5216 8.2507 -3.4155 2.7582 -2.7933 0.3884 1.6893 1.0402 -0.0000 0.0000 -10.9743 -1.9856 -5.1754 2.7104 0.0000 -0.0000 -1.8821 0.2796 -2.8971 2.6342 0.0000 0.0000 -11.8779 9.4044 -7.8873 9.7604 -0.0000 0.0000 -9.9110 -1.7320 -3.3896 5.3084 -22.6368 -24.0782 -34.5809 -8.8085 41.2130 16.9037 0.0000 7.5635 2.0135 12.7275 -9.0667 32.8623 0.0000 -24.3270 -7.7808 22.4843 31.4361 -37.6552 8.9176 -33.9727 -12.2416 -0.0000 7.6122 0.8766 -1.8332 25.5620 33.1476 -0.0000 26.2537 2.8397 3.1040 2.0084
 -3.7763 33.1510 -1.5144 8.1908 -3.3988 2.7590 -2.7076 0.3438 1.6892 1.0187 0.0000 0.0000 -10.9757 -1.9623 -5.1821 2.6961 -0.0000 -0.0000 -1.8170 0.2832 -2.8983 2.6431 -0.0000 0.0000 -11.8808 9.3995 -7.9335 9.7561 0.0000 -0.0000 -9.9025 -1.7592 -3.4002 5.3816 -22.6323 -24.0476 -34.6651 -8.8308 41.2456 16.8744 0.0000 7.5942 2.0010 12.7081 -9.0243 32.8623 0.0000 -24.3270 -7.7530 22.4591 31.4515 -37.6428 8.9251 -34.0091 -12.2533 -0.0000 7.6371 0.8799 -1.8323 25.6566 33.1476 -0.0000 26.2537 3.1473 3.0980 1.9398
 -3.7770 33.1525 -1.5113 8.1719 -3.4024 2.7721 -2.6823 0.3510 1.6771 1.0137 -0.0000 -0.0000 -10.9793 -1.9658 -5.1854 2.7425 -0.0000 0.0000 -1.8002 0.2345 -2.9172 2.6547 -0.0000 -0.0000 -11.8711 9.4671 -7.9001 9.7867 -0.0000 -0.0000 -9.9279 -1.7510 -3.4102 5.3811 -22.5950 -24.0288 -34.6752 -8.8593 41.2374 16.8467 0.0000 7.5904 1.9742 12.7971 -8.8455 32.8623 0.0000 -24.3270 -7.7372 22.4289 31.4490 -37.6538 8.9467 -34.0302 -12.2862 -0.0000 7.6844 0.8920 -1.8539 25.7004 33.1476 -0.0000 26.2537 3.4226 3.0883 1.8595
 -3.7777 33.1532 -1.5084 8.1551 -3.3919 2.7710 -2.6580 0.3383 1.6763 1.0110 0.0000 -0.0000 -10.9796 -1.9672 -5.1893 2.7700 -0.0000 -0.0000 -1.7861 0.2140 -2.9189 2.6644 -0.0000 -0.0000 -11.8717 9.4932 -7.8983 9.7786 0.0000 -0.0000 -9.9524 -1.7653 -3.4003 5.4020 -22.5671 -24.0217 -34.7038 -8.8917 41.2411 16.8209 0.0000 7.5959 1.9645 12.7931 -8.8052 32.8623 0.0000 -24.3270 -7.7325 22.4069 31.4454 -37.6456 8.9501 -34.0561 -12.3078 -0.0000 7.6712 0.9007 -1.8679 25.7483 33.1476 -0.0000 26.2537 3.6785 3.0984 1.7780
 -3.7787 33.1530 -1.5069 8.1470 -3.4033 2.7521 -2.6524 0.3502 1.6967 1.0227 0.0000 0.0000 -10.9673 -1.9657 -5.1774 2.7187 -0.0000 0.0000 -1.7817 0.2637 -2.8926 2.6861 0.0000 -0.0000 -11.8940 9.4364 -7.9331 9.7717 -0.0000 -0.0000 -9.9782 -1.7655 -3.3578 5.3602 -22.5121 -24.0604 -34.6380 -8.8949 41.2554 16.7996 0.0000 7.5577 1.9439 12.6647 -8.7996 32.8623 0.0000 -24.3270 -7.7082 22.3896 31.4220 -37.6535 8.9630 -34.0639 -12.3404 -0.0000 7.6659 0.8765 -1.8183 25.7418 33.1476 -0.0000 26.2537 3.9143 3.0998 1.6763
 -3.7776 33.1535 -1.5021 8.1270 -3.3810 2.7737 -2.6147 0.3283 1.6694 1.0060 -0.0000 0.0000 -10.9876 -1.9670 -5.1647 2.7644 -0.0000 0.0000 -1.7233 -0.0078 -2.9186 2.5904 -0.0000 0.0000 -11.8384 9.6642 -7.9150 9.7600 0.0000 -0.0000 -10.0017 -1.7869 -3.3737 5.3762 -22.4918 -24.0694 -34.6609 -8.9400 41.2709 16.7885 0.0000 7.5111 1.8988 12.6068 -8.6369 32.8623 0.0000 -24.3270 -7.7050 22.3507 31.4173 -37.6456 8.9912 -34.0655 -12.3676 -0.0000 7.6522 0.8852 -1.8368 25.7361 33.1476 -0.0000 26.2537 4.1330 3.0888 1.5989
 -3.7779 33.1538 -1.5006 8.1277 -3.3862 2.7732 -2.6133 0.3323 1.6700 1.0060 -0.0000 -0.0000 -10.9833 -1.9624 -5.1777 2.7426 0.0000 0.0000 -1.7162 -0.0387 -2.9193 2.5814 0.0000 -0.0000 -11.8395 9.7041 -7.9204 9.8018 -0.0000 0.0000 -10.0322 -1.7722 -3.3577 5.3715 -22.4751 -24.0912 -34.6538 -8.9992 41.2947 16.7585 0.0000 7.5632 1.9194 12.7376 -8.6423 32.8623 0.0000 -24.3270 -7.7039 22.3179 31.4018 -37.6603 9.0056 -34.0657 -12.3847 -0.0000 7.6508 0.8813 -1.8305 25.7141 33.1476 -0.0000 26.2537 4.3043 3.0875 1.5341
 -3.7793 33.1538 -1.4978 8.1212 -3.3852 2.7726 -2.5966 0.3416 1.6729 0.9954 -0.0000 0.0000 -10.9714 -1.9721 -5.1844 2.7489 -0.0000 -0.0000 -1.7061 -0.0234 -2.9155 2.5841 -0.0000 -0.0000 -11.8371 9.6928 -7.9390 9.7812 0.0000 -0.0000 -10.0537 -1.7683 -3.3499 5.3804 -22.4793 -24.0998 -34.6584 -9.0176 41.3246 16.7386 0.0000 7.5564 1.9157 12.7536 -8.6155 32.8623 0.0000 -24.3270 -7.7091 22.2896 31.4020 -37.6535 9.0102 -34.0735 -12.3971 -0.0000 7.6368 0.8685 -1.8048 25.7014 33.1476 -0.0000 26.2537 4.4433 3.0524 1.4671
 -3.7797 33.1538 -1.4963 8.1204 -3.3815 2.7756 -2.5928 0.3443 1.6701 0.9943 -0.0000 0.0000 -10.9689 -1.9737 -5.1917 2.7037 -0.0000 -0.0000 -1.7019 -0.0239 -2.9181 2.5818 0.0000 -0.0000 -11.8447 9.6860 -7.9192 9.8689 0.0000 -0.0000 -10.0725 -1.7671 -3.3472 5.3923 -22.4798 -24.1022 -34.6540 -9.0369 41.3408 16.7228 0.0000 7.5345 1.9122 12.7780 -8.5840 32.8623 0.0000 -24.3270 -7.7120 22.2790 31.4010 -37.6635 9.0110 -34.0854 -12.4092 -0.0000 7.6390 0.8735 -1.8179 25.6683 33.1476 -0.0000 26.2537 4.5509 3.0508 1.4223
 -3.7813 33.1537 -1.4951 8.1153 -3.3750 2.7793 -2.5842 0.3591 1.6685 0.9975 -0.0000 0.0000 -10.9868 -2.0001 -5.1708 2.7252 -0.0000 -0.0000 -1.6962 -0.0335 -2.9192 2.5832 0.0000 0.0000 -11.8346 9.6875 -7.9353 9.7907 0.0000 -0.0000 -10.0793 -1.7767 -3.3501 5.4030 -22.4811 -24.1053 -34.6480 -9.0568 41.3643 16.7169 0.0000 7.5198 1.9079 12.8180 -8.5393 32.8623 0.0000 -24.3270 -7.7246 22.2666 31.3981 -37.6596 9.0052 -34.0785 -12.4148 -0.0000 7.6216 0.8675 -1.8090 25.6263 33.1476 -0.0000 26.2537 4.6096 3.0720 1.3830
 -3.7808 33.1532 -1.4942 8.1180 -3.3763 2.7780 -2.5839 0.3806 1.6691 0.9921 -0.0000 0.0000 -10.9857 -2.0220 -5.1530 2.7195 -0.0000 -0.0000 -1.6949 -0.0603 -2.9185 2.5775 -0.0000 0.0000 -11.8375 9.7148 -7.9291 9.7870 0.0000 0.0000 -10.0904 -1.7774 -3.3327 5.4131 -22.4924 -24.1271 -34.6272 -9.0608 41.4065 16.6742 0.0000 7.5964 1.9462 12.8968 -8.6566 32.8623 0.0000 -24.3270 -7.7108 22.2680 31.3739 -37.6396 8.9735 -34.0750 -12.4123 -0.0000 7.5744 0.8512 -1.7718 25.6666 33.1476 -0.0000 26.2537 4.6395 3.0692 1.3257
 -3.7827 33.1526 -1.4928 8.1244 -3.3576 2.7783 -2.5810 0.3874 1.6724 0.9831 0.0000 -0.0000 -10.9997 -2.0432 -5.1912 2.7540 -0.0000 -0.0000 -1.6996 -0.0717 -2.9152 2.5737 0.0000 0.0000 -11.8423 9.7111 -7.9310 9.8052 0.0000 0.0000 -10.1000 -1.7925 -3.3399 5.4309 -22.5155 -24.1068 -34.6156 -9.0431 41.4094 16.6765 0.0000 7.5453 1.9426 12.8922 -8.6436 32.8623 0.0000 -24.3270 -7.6966 22.2879 31.3675 -37.6614 8.9535 -34.0758 -12.4191 -0.0000 7.5969 0.8549 -1.7841 25.6087 33.1476 -0.0000 26.2537 4.6157 3.0909 1.3190
 -3.7835 33.1515 -1.4940 8.1227 -3.3689 2.7779 -2.5919 0.4157 1.6745 1.0012 0.0000 -0.0000 -11.0084 -2.0526 -5.2087 2.7273 0.0000 -0.0000 -1.6937 -0.0618 -2.9144 2.5654 0.0000 0.0000 -11.8486 9.7206 -7.9475 9.8109 -0.0000 0.0000 -10.0759 -1.7766 -3.3339 5.4042 -22.5346 -24.1060 -34.5881 -9.0464 41.4153 16.6911 0.0000 7.5397 1.9242 12.8689 -8.5780 32.8623 0.0000 -24.3270 -7.7041 22.3061 31.3588 -37.6516 8.9143 -34.0821 -12.4185 -0.0000 7.5588 0.8420 -1.7591 25.5841 33.1476 -0.0000 26.2537 4.5154 3.0879 1.3003
 -3.7841 33.1509 -1.4939 8.1293 -3.3532 2.7811 -2.5973 0.4130 1.6711 1.0027 0.0000 -0.0000 -11.0185 -2.0662 -5.1908 2.7301 0.0000 0.0000 -1.7067 -0.0875 -2.9162 2.5740 0.0000 -0.0000 -11.8518 9.7323 -7.9511 9.7701 -0.0000 0.0000 -10.0685 -1.7919 -3.3347 5.4021 -22.5638 -24.1014 -34.5721 -9.0356 41.4300 16.6963 0.0000 7.5191 1.9182 12.8483 -8.5649 32.8623 0.0000 -24.3270 -7.8145 22.2236 31.4009 -37.4994 8.9556 -34.0605 -12.4528 -0.0000 7.5624 0.8537 -1.7901 25.5010 33.1476 -0.0000 26.2537 4.3934 3.0979 1.2846
 -3.7853 33.1497 -1.4947 8.1313 -3.3498 2.7841 -2.6007 0.4274 1.6696 1.0039 -0.0000 -0.0000 -11.0328 -2.0708 -5.2229 2.7377 -0.0000 0.0000 -1.7094 -0.0988 -2.9158 2.5703 -0.0000 0.0000 -11.8633 9.7335 -7.9393 9.7825 0.0000 -0.0000 -10.0369 -1.7924 -3.3445 5.3890 -22.6035 -24.0742 -34.5753 -9.0249 41.4280 16.6988 0.0000 7.5240 1.9095 12.8311 -8.5375 32.8623 0.0000 -24.3270 -7.7513 22.3331 31.3530 -37.6203 8.8744 -34.0664 -12.4348 -0.0000 7.5676 0.8550 -1.7936 25.4932 33.1476 -0.0000 26.2537 4.1969 3.1227 1.2973
